#!Matlab matrix to amc conversion
:FULLY-SPECIFIED
:DEGREES
44
root 0.401828 -0.011850 19.844460 12.305652 8.998532 7.626434
lowerback -6.616866 -4.483236 -10.194749
upperback 0.956935 -5.295012 1.808281
thorax 5.823718 -2.890689 6.925707
lowerneck -28.318604 -4.163721 -10.814545
upperneck 22.627025 -4.744483 12.595605
head 12.978918 -1.414183 5.915679
rclavicle -0.000000 -0.000000
rhumerus -42.298940 -8.462098 -60.922518
rradius 8.830816
rwrist 12.959675
rhand -28.856200 -18.800500
rfingers 7.125020
rthumb -2.212790 -48.768800
lclavicle -0.000000 -0.000000
lhumerus -18.889470 -7.493400 81.015262
lradius 49.865231
lwrist 13.958388
lhand -19.668800 -28.799300
lfingers 7.125020
lthumb 6.659510 1.076010
rfemur -44.553135 10.374871 8.216780
rtibia 33.985008
rfoot -17.459904 -14.074543
rtoes -20.766800
lfemur 9.183513 6.280457 -29.824584
ltibia -0.186003
lfoot -4.953022 -13.036210
ltoes -22.051700
45
root 0.425853 -0.018952 20.255314 12.489908 8.848969 8.055019
lowerback -7.779920 -4.310282 -10.358001
upperback 1.815246 -4.941209 1.507631
thorax 7.324696 -2.788674 6.612989
lowerneck -29.556663 -4.255033 -10.415974
upperneck 22.663577 -4.983649 12.989193
head 13.279305 -1.413535 5.984655
rclavicle -0.000000 -0.000000
rhumerus -40.324805 -14.278630 -57.124232
rradius 3.910649
rwrist 18.625367
rhand -28.856200 -18.800500
rfingers 7.125020
rthumb -2.212790 -48.768800
lclavicle -0.000000 -0.000000
lhumerus -18.821038 -4.607069 80.175171
lradius 51.076286
lwrist 14.410067
lhand -19.668800 -28.799300
lfingers 7.125020
lthumb 6.659510 1.076010
rfemur -45.129616 10.970549 8.073070
rtibia 34.882433
rfoot -15.816566 -14.379805
rtoes -20.766800
lfemur 9.843421 7.467050 -29.686016
ltibia 0.232919
lfoot -3.698421 -16.296298
ltoes -22.051700
46
root 0.453227 0.019245 20.667474 12.303279 7.946617 8.670526
lowerback -8.502752 -4.134833 -10.736205
upperback 2.482625 -4.618126 1.059062
thorax 8.372326 -2.679011 6.307373
lowerneck -29.851338 -4.055532 -10.465988
upperneck 22.385852 -4.797327 13.577735
head 13.223497 -1.251109 6.245992
rclavicle 0.000000 -0.000000
rhumerus -38.437871 -18.752469 -53.999509
rradius 1.030362
rwrist 23.804920
rhand -28.856200 -18.800500
rfingers 7.125020
rthumb -2.212790 -48.768800
lclavicle 0.000000 -0.000000
lhumerus -17.682584 -4.226791 79.089529
lradius 51.308936
lwrist 14.490275
lhand -19.668800 -28.799300
lfingers 7.125020
lthumb 6.659510 1.076010
rfemur -45.770670 10.031480 8.901485
rtibia 36.395885
rfoot -12.356821 -14.208445
rtoes -20.766800
lfemur 11.410911 8.525862 -29.234160
ltibia 1.426641
lfoot -3.598895 -19.270064
ltoes -22.051700
47
root 0.479685 0.111828 21.100004 11.744295 6.830418 8.997731
lowerback -8.772457 -4.015216 -10.831547
upperback 2.960799 -4.436727 0.644106
thorax 8.959058 -2.612696 5.907841
lowerneck -29.437133 -3.623802 -10.607007
upperneck 21.816992 -4.282637 14.061539
head 12.874458 -0.972716 6.507241
rclavicle 0.000000 -0.000000
rhumerus -36.670015 -22.069537 -51.610029
rradius -0.200764
rwrist 28.513938
rhand -28.856200 -18.800500
rfingers 7.125020
rthumb -2.212790 -48.768800
lclavicle 0.000000 -0.000000
lhumerus -16.580825 -5.692886 78.007568
lradius 50.748629
lwrist 14.237868
lhand -19.668800 -28.799300
lfingers 7.125020
lthumb 6.659510 1.076010
rfemur -46.161997 8.648689 10.192274
rtibia 38.411283
rfoot -8.378856 -13.658977
rtoes -20.766800
lfemur 13.429251 9.250663 -28.334447
ltibia 2.671502
lfoot -3.080468 -20.849968
ltoes -22.051700
48
root 0.504919 0.262754 21.557241 10.790567 5.866390 8.366342
lowerback -8.362194 -4.037611 -10.048727
upperback 3.092624 -4.568107 0.553375
thorax 8.790452 -2.659163 5.391458
lowerneck -28.139352 -2.958411 -10.714661
upperneck 20.812550 -3.383362 14.032404
head 12.128632 -0.590560 6.581485
rclavicle 0.000000 -0.000000
rhumerus -35.654363 -23.774373 -49.821966
rradius 0.393470
rwrist 31.657718
rhand -28.856200 -18.800500
rfingers 7.125020
rthumb -2.212790 -48.768800
lclavicle 0.000000 -0.000000
lhumerus -15.802503 -9.514983 77.295071
lradius 49.729194
lwrist 14.388312
lhand -19.668800 -28.799300
lfingers 7.125020
lthumb 6.659510 1.076010
rfemur -46.191923 7.950197 11.528494
rtibia 40.570848
rfoot -4.017866 -12.810690
rtoes -20.766800
lfemur 16.215797 9.504937 -26.411612
ltibia 3.359177
lfoot -0.900750 -20.185419
ltoes -22.051700
49
root 0.528994 0.456453 22.035417 9.457221 5.427786 5.339996
lowerback -6.729172 -4.308167 -7.298839
upperback 2.413314 -5.270209 1.501223
thorax 7.073796 -2.909766 4.926535
lowerneck -25.466640 -2.072019 -10.896215
upperneck 19.050227 -1.962337 12.873501
head 10.732771 -0.122012 6.235657
rclavicle -0.000000 -0.000000
rhumerus -36.808828 -23.056168 -47.620699
rradius 3.276372
rwrist 31.480422
rhand -28.856200 -18.800500
rfingers 7.125020
rthumb -2.212790 -48.768800
lclavicle -0.000000 -0.000000
lhumerus -16.224487 -16.539952 78.103101
lradius 49.028726
lwrist 16.021264
lhand -19.668800 -28.799300
lfingers 7.125020
lthumb 6.659510 1.076010
rfemur -45.788352 9.555144 12.949131
rtibia 42.500957
rfoot 1.257856 -11.743245
rtoes -20.766800
lfemur 20.347743 9.222470 -22.082532
ltibia 3.141245
lfoot 5.580461 -15.661538
ltoes -22.051700
50
root 0.552633 0.613005 22.514542 7.963228 4.117459 -0.111326
lowerback -3.764329 -4.485208 -2.954625
upperback 0.022576 -6.079274 4.284659
thorax 2.833908 -3.096573 5.639636
lowerneck -22.169439 -1.408119 -12.536885
upperneck 16.992824 -0.317960 11.465569
head 9.035672 0.284179 6.059999
rclavicle -0.000000 -0.000000
rhumerus -43.068331 -22.110057 -41.552393
rradius 7.924631
rwrist 33.963218
rhand -28.856200 -18.800500
rfingers 7.125020
rthumb -2.212790 -48.768800
lclavicle -0.000000 -0.000000
lhumerus -21.285959 -20.512312 82.304716
lradius 48.318615
lwrist 13.304735
lhand -19.668800 -28.799300
lfingers 7.125020
lthumb 6.659510 1.076010
rfemur -45.625540 13.248326 16.055655
rtibia 45.462575
rfoot 4.679968 -9.080972
rtoes -20.766800
lfemur 24.218292 8.409886 -15.662155
ltibia 6.092938
lfoot 18.151479 -4.502118
ltoes -22.051700
51
root 0.557150 0.521646 22.959255 8.184694 1.420432 3.573344
lowerback -5.755093 -3.851017 -5.009271
upperback -0.210849 -4.908406 2.538026
thorax 3.567575 -2.540771 4.954041
lowerneck -22.993726 -0.513983 -10.958824
upperneck 17.529154 1.404072 7.988849
head 9.162979 0.767896 4.759562
rclavicle -0.000000 0.000000
rhumerus -46.067907 -15.111968 -48.446995
rradius 10.759370
rwrist 32.066480
rhand -28.856200 -18.800500
rfingers 7.125020
rthumb -2.212790 -48.768800
lclavicle -0.000000 0.000000
lhumerus -14.039421 -25.071216 81.204317
lradius 46.771716
lwrist 15.156493
lhand -19.668800 -28.799300
lfingers 7.125020
lthumb 6.659510 1.076010
rfemur -46.245765 4.170446 16.075722
rtibia 42.069291
rfoot -7.711355 -0.523179
rtoes -20.766800
lfemur 23.459752 6.662063 -23.945818
ltibia 3.823905
lfoot -9.345596 -1.543313
ltoes -22.051700
